<?xml version="1.0" encoding="UTF-8"?>
<!DOCTYPE svg PUBLIC "-//W3C//DTD SVG 1.1//EN" "http://www.w3.org/Graphics/SVG/1.1/DTD/svg11.dtd">
<!-- Creator: CorelDRAW 2019 (64 Bit) -->
<svg xmlns="http://www.w3.org/2000/svg" xml:space="preserve" width="297mm" height="210mm" version="1.1" style="shape-rendering:geometricPrecision; text-rendering:geometricPrecision; image-rendering:optimizeQuality; fill-rule:evenodd; clip-rule:evenodd"
viewBox="0 0 29700 21000"
 xmlns:xlink="http://www.w3.org/1999/xlink">
 <defs>
  <style type="text/css">
   <![CDATA[
    .str7 {stroke:black;stroke-width:100;stroke-miterlimit:22.9256}
    .str6 {stroke:black;stroke-width:150;stroke-miterlimit:22.9256}
    .str4 {stroke:black;stroke-width:20;stroke-miterlimit:22.9256}
    .str5 {stroke:black;stroke-width:20;stroke-miterlimit:22.9256}
    .str0 {stroke:#213335;stroke-width:20;stroke-miterlimit:22.9256}
    .str2 {stroke:#46CE84;stroke-width:20;stroke-miterlimit:22.9256}
    .str3 {stroke:white;stroke-width:20;stroke-miterlimit:22.9256}
    .str1 {stroke:white;stroke-width:20;stroke-miterlimit:22.9256}
    .fil4 {fill:none}
    .fil3 {fill:black}
    .fil0 {fill:#213335}
    .fil2 {fill:#46CE84}
    .fil1 {fill:white}
   ]]>
  </style>
    <clipPath id="id0">
     <path d="M18726.88 5272.86c142.43,-54.24 399.95,-139.79 623.96,-201.08 224.01,-61.3 414.52,-98.34 580.33,-125.24 165.8,-26.9 306.91,-43.65 419.8,-52.03 112.89,-8.38 197.55,-8.38 302.07,-6.61 104.51,1.76 228.86,5.28 329.85,12.34 100.98,7.05 178.59,17.64 298.54,43.22 119.94,25.57 282.22,66.14 423.02,103.62 140.79,37.48 260.09,71.87 379.72,108.47 119.63,36.6 239.57,75.4 326.32,104.07 86.75,28.67 140.31,47.19 179.44,59.99 39.12,12.79 63.81,19.84 81.89,35.28 18.08,15.43 29.55,39.24 40.13,65.26 10.58,26.01 20.29,54.24 29.11,95.25 8.82,41.01 16.75,94.81 34.83,306.04 18.08,211.22 46.31,579.88 58.22,914.14 11.9,334.25 7.49,634.12 2.2,882.39 -5.29,248.27 -11.47,444.94 -22.93,615.16 -11.47,170.22 -28.22,313.97 -49.39,462.58 -21.17,148.61 -46.74,302.07 -66.58,403.5 -19.85,101.42 -33.97,150.81 -46.31,194.03 -12.35,43.21 -22.94,80.26 -41.9,112.45 -18.96,32.19 -46.3,59.53 -76.28,85.11 -29.99,25.57 -62.63,49.38 -102.31,67.46 -39.69,18.08 -86.44,30.43 -138.91,38.81 -52.48,8.38 -110.68,12.79 -194.02,18.97 -83.35,6.17 -191.83,14.1 -340.88,25.57 -149.05,11.46 -338.67,26.46 -528.73,35.28 -190.06,8.82 -380.56,11.46 -584.73,11.9 -204.17,0.44 -422.02,-1.32 -610.31,-8.38 -188.3,-7.06 -347.05,-19.4 -493.89,-30.42 -146.85,-11.03 -281.79,-20.73 -384.54,-31.31 -102.75,-10.59 -173.3,-22.05 -232.83,-35.28 -59.54,-13.23 -108.04,-28.23 -145.08,-42.34 -37.05,-14.11 -62.62,-27.34 -84.23,-48.94 -21.61,-21.61 -39.24,-51.6 -57.76,-84.67 -18.52,-33.07 -37.93,-69.23 -54.24,-108.48 -16.32,-39.25 -29.55,-81.58 -42.34,-139.35 -12.79,-57.77 -25.13,-130.97 -37.92,-220.48 -12.79,-89.52 -26.02,-195.36 -34.4,-285.32 -8.38,-89.96 -11.9,-164.04 -17.19,-246.94 -5.3,-82.91 -12.35,-174.63 -17.64,-269.88 -5.3,-95.25 -8.82,-194.03 -12.79,-314.41 -3.97,-120.39 -8.38,-262.39 -11.02,-422.46 -2.65,-160.07 -3.54,-338.23 -1.33,-567.97 2.2,-229.75 7.5,-511.1 25.47,-746.03 17.97,-234.93 48.63,-423.44 65.83,-528.06 17.2,-104.62 20.95,-125.35 24.15,-142.21 3.19,-16.87 5.82,-29.89 20.82,-47.86 14.99,-17.97 42.34,-40.9 184.78,-95.14z"/>
    </clipPath>
 </defs>
 <g id="Camada_x0020_1">
  <metadata id="CorelCorpID_0Corel-Layer"/>
  <rect class="fil0 str0" x="13996.05" y="861.27" width="13335.12" height="12980.46" rx="2979.57" ry="3098.41"/>
  <ellipse class="fil1 str1" cx="20575.07" cy="7351.5" rx="5917.48" ry="5876.41"/>
  <ellipse class="fil2 str2" cx="20541.63" cy="7518.19" rx="4257.6" ry="4228.05"/>
  <rect class="fil2 str2" transform="matrix(0.479664 -0.461588 0.461588 0.479664 22671 10187.3)" width="1397" height="8001.01" rx="401.02" ry="401.02"/>
  <ellipse class="fil1 str3" cx="20608.27" cy="7531.46" rx="3259.67" ry="3237.04"/>
  <g id="_1286925324416">
   <g>
    <rect class="fil3 str4" x="18789.51" y="9354.68" width="629.71" height="764.65" rx="129.65" ry="160.12"/>
    <rect class="fil3 str4" x="21795.19" y="9354.68" width="629.71" height="764.65" rx="129.65" ry="160.12"/>
   </g>
   <path class="fil1" d="M18726.88 5272.86c142.43,-54.24 399.95,-139.79 623.96,-201.08 224.01,-61.3 414.52,-98.34 580.33,-125.24 165.8,-26.9 306.91,-43.65 419.8,-52.03 112.89,-8.38 197.55,-8.38 302.07,-6.61 104.51,1.76 228.86,5.28 329.85,12.34 100.98,7.05 178.59,17.64 298.54,43.22 119.94,25.57 282.22,66.14 423.02,103.62 140.79,37.48 260.09,71.87 379.72,108.47 119.63,36.6 239.57,75.4 326.32,104.07 86.75,28.67 140.31,47.19 179.44,59.99 39.12,12.79 63.81,19.84 81.89,35.28 18.08,15.43 29.55,39.24 40.13,65.26 10.58,26.01 20.29,54.24 29.11,95.25 8.82,41.01 16.75,94.81 34.83,306.04 18.08,211.22 46.31,579.88 58.22,914.14 11.9,334.25 7.49,634.12 2.2,882.39 -5.29,248.27 -11.47,444.94 -22.93,615.16 -11.47,170.22 -28.22,313.97 -49.39,462.58 -21.17,148.61 -46.74,302.07 -66.58,403.5 -19.85,101.42 -33.97,150.81 -46.31,194.03 -12.35,43.21 -22.94,80.26 -41.9,112.45 -18.96,32.19 -46.3,59.53 -76.28,85.11 -29.99,25.57 -62.63,49.38 -102.31,67.46 -39.69,18.08 -86.44,30.43 -138.91,38.81 -52.48,8.38 -110.68,12.79 -194.02,18.97 -83.35,6.17 -191.83,14.1 -340.88,25.57 -149.05,11.46 -338.67,26.46 -528.73,35.28 -190.06,8.82 -380.56,11.46 -584.73,11.9 -204.17,0.44 -422.02,-1.32 -610.31,-8.38 -188.3,-7.06 -347.05,-19.4 -493.89,-30.42 -146.85,-11.03 -281.79,-20.73 -384.54,-31.31 -102.75,-10.59 -173.3,-22.05 -232.83,-35.28 -59.54,-13.23 -108.04,-28.23 -145.08,-42.34 -37.05,-14.11 -62.62,-27.34 -84.23,-48.94 -21.61,-21.61 -39.24,-51.6 -57.76,-84.67 -18.52,-33.07 -37.93,-69.23 -54.24,-108.48 -16.32,-39.25 -29.55,-81.58 -42.34,-139.35 -12.79,-57.77 -25.13,-130.97 -37.92,-220.48 -12.79,-89.52 -26.02,-195.36 -34.4,-285.32 -8.38,-89.96 -11.9,-164.04 -17.19,-246.94 -5.3,-82.91 -12.35,-174.63 -17.64,-269.88 -5.3,-95.25 -8.82,-194.03 -12.79,-314.41 -3.97,-120.39 -8.38,-262.39 -11.02,-422.46 -2.65,-160.07 -3.54,-338.23 -1.33,-567.97 2.2,-229.75 7.5,-511.1 25.47,-746.03 17.97,-234.93 48.63,-423.44 65.83,-528.06 17.2,-104.62 20.95,-125.35 24.15,-142.21 3.19,-16.87 5.82,-29.89 20.82,-47.86 14.99,-17.97 42.34,-40.9 184.78,-95.14z"/>
   <g style="clip-path:url(#id0)">
    <g>
     <g>
      <g>
       <circle class="fil3 str5" cx="19641.3" cy="9011.13" r="190.5"/>
       <circle class="fil3 str5" cx="21556.89" cy="9015.84" r="190.5"/>
       <circle class="fil3 str5" cx="19154.46" cy="9021.72" r="134.7"/>
       <circle class="fil3 str5" cx="22048.43" cy="9021.14" r="134.7"/>
      </g>
      <path class="fil3 str5" d="M18791.52 7067.94c42.61,127 101.67,217.84 154.93,296.78 53.24,78.93 100.69,145.96 -57.01,268.05 -157.71,122.08 -520.58,299.22 -591.76,417.34 -71.18,118.11 149.3,177.2 316.44,221.74 167.13,44.54 280.9,74.52 438.32,107.6 157.43,33.07 358.52,69.23 558.28,98.34 199.76,29.1 398.2,51.15 571.45,70.18 173.25,19.03 321.29,35.05 461.15,40.41 139.86,5.36 271.55,0.07 426.46,-13.16 154.91,-13.23 333.07,-34.39 483.14,-52.03 150.07,-17.64 272.08,-31.75 400.85,-56.44 128.76,-24.7 264.32,-59.98 417.3,-106.72 152.97,-46.75 323.39,-104.95 476.37,-184.32 152.97,-79.38 288.53,-179.93 343.22,-257.55 54.7,-77.62 28.54,-132.31 6.75,-207.28 -21.81,-74.98 -39.23,-170.23 -49.88,-274.3 -10.66,-104.07 -14.52,-216.96 -26.14,-347.49 -11.62,-130.53 -30.99,-278.69 -51.32,-429.5 -20.33,-150.82 -41.64,-304.28 -66.81,-444.51 -25.18,-140.23 -54.22,-267.23 -115.92,-360.71 -61.71,-93.48 -156.08,-153.43 -303.68,-217.77 -147.62,-64.34 -348.47,-133.07 -578.55,-193.44 -230.07,-60.38 -489.36,-112.42 -735.43,-149.02 -246.06,-36.6 -478.89,-57.76 -713.93,-59.08 -235.05,-1.33 -472.29,17.2 -710.41,52.92 -238.13,35.72 -477.14,88.63 -665.22,157.86 -188.08,69.23 -325.22,154.78 -385.7,246.46 -60.49,91.67 -44.3,189.49 -47.82,344.23 -3.53,154.74 -26.76,366.4 -25.3,553.82 1.46,187.42 27.61,350.58 70.22,477.59z"/>
      <rect class="fil1 str3" x="18605.81" y="5980.88" width="3992.39" height="227.55"/>
      <path class="fil3 str4" d="M20760.57 8581.63c-201.03,-8.82 -796.1,-71 -1221.24,-133.83 -425.14,-62.84 -680.35,-126.34 -833.6,-184.46 -153.25,-58.13 -204.55,-110.87 -232.31,-189.64 -27.75,-78.78 -31.98,-183.59 -35.91,-306.4 -3.93,-122.81 -7.57,-263.63 -9.23,-458.19 -1.65,-194.57 -1.33,-442.87 1.95,-651.88 3.29,-209.01 9.54,-378.71 17.8,-517.69 8.28,-138.98 18.58,-247.22 21.98,-329.05 3.41,-81.84 -0.07,-137.25 367.07,-251.02 367.13,-113.78 1104.89,-285.9 1250.13,-293.91 145.26,-8.01 -302.01,148.11 -585.08,266.74 -283.05,118.62 -401.93,199.76 -527.79,249.15 -125.86,49.39 -258.7,67.03 -348.04,118.06 -89.33,51.03 -135.16,135.44 -138.66,241.28 -3.49,105.83 35.33,233.08 128.16,379.61 92.84,146.53 239.68,312.33 402.25,467.56 162.57,155.22 340.87,299.85 522.66,462.13 181.81,162.28 367.11,342.2 524.43,490.37 157.33,148.17 286.67,264.58 367.09,352.78 80.41,88.19 111.87,148.16 224.11,200.42 112.24,52.25 305.26,96.78 104.23,87.97z"/>
     </g>
    </g>
   </g>
   <path class="fil4 str6" d="M18726.88 5272.86c142.43,-54.24 399.95,-139.79 623.96,-201.08 224.01,-61.3 414.52,-98.34 580.33,-125.24 165.8,-26.9 306.91,-43.65 419.8,-52.03 112.89,-8.38 197.55,-8.38 302.07,-6.61 104.51,1.76 228.86,5.28 329.85,12.34 100.98,7.05 178.59,17.64 298.54,43.22 119.94,25.57 282.22,66.14 423.02,103.62 140.79,37.48 260.09,71.87 379.72,108.47 119.63,36.6 239.57,75.4 326.32,104.07 86.75,28.67 140.31,47.19 179.44,59.99 39.12,12.79 63.81,19.84 81.89,35.28 18.08,15.43 29.55,39.24 40.13,65.26 10.58,26.01 20.29,54.24 29.11,95.25 8.82,41.01 16.75,94.81 34.83,306.04 18.08,211.22 46.31,579.88 58.22,914.14 11.9,334.25 7.49,634.12 2.2,882.39 -5.29,248.27 -11.47,444.94 -22.93,615.16 -11.47,170.22 -28.22,313.97 -49.39,462.58 -21.17,148.61 -46.74,302.07 -66.58,403.5 -19.85,101.42 -33.97,150.81 -46.31,194.03 -12.35,43.21 -22.94,80.26 -41.9,112.45 -18.96,32.19 -46.3,59.53 -76.28,85.11 -29.99,25.57 -62.63,49.38 -102.31,67.46 -39.69,18.08 -86.44,30.43 -138.91,38.81 -52.48,8.38 -110.68,12.79 -194.02,18.97 -83.35,6.17 -191.83,14.1 -340.88,25.57 -149.05,11.46 -338.67,26.46 -528.73,35.28 -190.06,8.82 -380.56,11.46 -584.73,11.9 -204.17,0.44 -422.02,-1.32 -610.31,-8.38 -188.3,-7.06 -347.05,-19.4 -493.89,-30.42 -146.85,-11.03 -281.79,-20.73 -384.54,-31.31 -102.75,-10.59 -173.3,-22.05 -232.83,-35.28 -59.54,-13.23 -108.04,-28.23 -145.08,-42.34 -37.05,-14.11 -62.62,-27.34 -84.23,-48.94 -21.61,-21.61 -39.24,-51.6 -57.76,-84.67 -18.52,-33.07 -37.93,-69.23 -54.24,-108.48 -16.32,-39.25 -29.55,-81.58 -42.34,-139.35 -12.79,-57.77 -25.13,-130.97 -37.92,-220.48 -12.79,-89.52 -26.02,-195.36 -34.4,-285.32 -8.38,-89.96 -11.9,-164.04 -17.19,-246.94 -5.3,-82.91 -12.35,-174.63 -17.64,-269.88 -5.3,-95.25 -8.82,-194.03 -12.79,-314.41 -3.97,-120.39 -8.38,-262.39 -11.02,-422.46 -2.65,-160.07 -3.54,-338.23 -1.33,-567.97 2.2,-229.75 7.5,-511.1 25.47,-746.03 17.97,-234.93 48.63,-423.44 65.83,-528.06 17.2,-104.62 20.95,-125.35 24.15,-142.21 3.19,-16.87 5.82,-29.89 20.82,-47.86 14.99,-17.97 42.34,-40.9 184.78,-95.14z"/>
   <path class="fil1 str7" d="M18323.59 5573.23c22.93,-4.41 58.2,-10.59 103.18,-11.03 44.98,-0.44 99.67,4.85 150.38,15.44 50.71,10.58 97.46,26.45 133.62,45.86 36.16,19.4 61.73,42.33 72.76,71.88 11.02,29.54 7.49,65.7 2.64,109.36 -4.85,43.65 -11.03,94.81 -22.05,177.27 -11.02,82.46 -26.9,196.23 -37.48,296.77 -10.58,100.54 -15.88,187.86 -22.05,272.53 -6.17,84.66 -13.23,166.69 -17.64,235.04 -4.41,68.35 -6.17,123.03 -14.55,165.81 -8.38,42.77 -23.38,73.63 -47.63,98.77 -24.25,25.13 -57.77,44.54 -104.07,52.04 -46.3,7.49 -105.39,3.08 -164.92,-3.09 -59.53,-6.18 -119.51,-14.11 -165.81,-28.22 -46.3,-14.11 -78.94,-34.4 -96.57,-72.76 -17.64,-38.37 -20.29,-94.81 -19.4,-185.65 0.88,-90.85 5.29,-216.08 17.2,-345.28 11.9,-129.21 31.31,-262.39 56,-389.83 24.69,-127.44 54.68,-249.15 77.61,-330.73 22.93,-81.58 38.8,-123.03 52.03,-145.08 13.23,-22.05 23.82,-24.69 46.75,-29.1z"/>
   <path class="fil1 str7" d="M22938.69 5562.47c-22.93,-4.41 -58.2,-10.59 -103.18,-11.03 -44.98,-0.44 -99.67,4.85 -150.38,15.44 -50.71,10.58 -97.46,26.45 -133.62,45.86 -36.16,19.4 -61.73,42.33 -72.76,71.88 -11.02,29.54 -7.49,65.7 -2.64,109.36 4.85,43.65 11.03,94.81 22.05,177.27 11.02,82.46 26.9,196.23 37.48,296.77 10.58,100.54 15.88,187.86 22.05,272.53 6.17,84.66 13.23,166.69 17.64,235.04 4.41,68.35 6.17,123.03 14.55,165.81 8.38,42.77 23.38,73.63 47.63,98.77 24.25,25.13 57.77,44.54 104.07,52.04 46.3,7.49 105.39,3.08 164.92,-3.09 59.53,-6.18 119.51,-14.11 165.81,-28.22 46.3,-14.11 78.94,-34.4 96.57,-72.76 17.64,-38.37 20.29,-94.81 19.4,-185.65 -0.88,-90.85 -5.29,-216.08 -17.2,-345.28 -11.9,-129.21 -31.31,-262.39 -56,-389.83 -24.69,-127.44 -54.68,-249.15 -77.61,-330.73 -22.93,-81.58 -38.8,-123.03 -52.03,-145.08 -13.23,-22.05 -23.82,-24.69 -46.75,-29.1z"/>
  </g>
 </g>
</svg>
